HIERARCHY
ROOT joint_0
{
	OFFSET 0.000000 0.000000 0.000000
	CHANNELS 6 Xposition Yposition Zposition Zrotation Yrotation Xrotation 
	JOINT joint_1
	{
		OFFSET 4.520508 -1.939880 86.268921
		CHANNELS 3 Zrotation Yrotation Xrotation
		JOINT joint_2
		{
			OFFSET -4.459717 -0.438538 78.934082
			CHANNELS 3 Zrotation Yrotation Xrotation
			JOINT joint_3
			{
				OFFSET -5.197754 -0.781128 78.796997
				CHANNELS 3 Zrotation Yrotation Xrotation
				JOINT joint_4
				{
					OFFSET 2.952026 -3.710571 109.812988
					CHANNELS 3 Zrotation Yrotation Xrotation
					JOINT joint_5
					{
						OFFSET 24.716797 -5.488037 87.903931
						CHANNELS 3 Zrotation Yrotation Xrotation
						End Site
						{
							OFFSET 0.000000 0.000000 0.000000
						}
					}
				}
				JOINT joint_6
				{
					OFFSET -3.154419 -25.484680 60.934937
					CHANNELS 3 Zrotation Yrotation Xrotation
					JOINT joint_7
					{
						OFFSET -28.997192 -144.472229 -32.671997
						CHANNELS 3 Zrotation Yrotation Xrotation
						JOINT joint_8
						{
							OFFSET 19.867676 -18.614380 -249.897949
							CHANNELS 3 Zrotation Yrotation Xrotation
							JOINT joint_9
							{
								OFFSET 5.281982 -13.816650 -264.993042
								CHANNELS 3 Zrotation Yrotation Xrotation
								End Site
								{
									OFFSET 0.000000 0.000000 0.000000
								}
							}
						}
					}
				}
				JOINT joint_10
				{
					OFFSET 6.494995 21.336792 62.257935
					CHANNELS 3 Zrotation Yrotation Xrotation
					JOINT joint_11
					{
						OFFSET 31.106567 145.200745 -27.007935
						CHANNELS 3 Zrotation Yrotation Xrotation
						JOINT joint_12
						{
							OFFSET 29.119141 24.684326 -248.460083
							CHANNELS 3 Zrotation Yrotation Xrotation
							JOINT joint_13
							{
								OFFSET 21.220093 31.248413 -262.703979
								CHANNELS 3 Zrotation Yrotation Xrotation
								End Site
								{
									OFFSET 0.000000 0.000000 0.000000
								}
							}
						}
					}
				}
			}
		}
	}
	JOINT joint_14
	{
		OFFSET -15.458496 -88.861694 -109.593018
		CHANNELS 3 Zrotation Yrotation Xrotation
		JOINT joint_15
		{
			OFFSET -6.193359 6.837952 -506.710999
			CHANNELS 3 Zrotation Yrotation Xrotation
			JOINT joint_16
			{
				OFFSET -35.096680 13.289795 -435.677025
				CHANNELS 3 Zrotation Yrotation Xrotation
				JOINT joint_17
				{
					OFFSET 158.491211 -33.916565 -71.771002
					CHANNELS 3 Zrotation Yrotation Xrotation
					End Site
					{
						OFFSET 0.000000 0.000000 0.000000
					}
				}
			}
		}
	}
	JOINT joint_18
	{
		OFFSET 23.116943 86.574158 -110.082031
		CHANNELS 3 Zrotation Yrotation Xrotation
		JOINT joint_19
		{
			OFFSET -6.125854 -0.283569 -506.757019
			CHANNELS 3 Zrotation Yrotation Xrotation
			JOINT joint_20
			{
				OFFSET -63.240234 11.589966 -432.537994
				CHANNELS 3 Zrotation Yrotation Xrotation
				JOINT joint_21
				{
					OFFSET 156.074219 -41.487305 -73.077999
					CHANNELS 3 Zrotation Yrotation Xrotation
					End Site
					{
						OFFSET 0.000000 0.000000 0.000000
					}
				}
			}
		}
	}
}
MOTION
Frames: 13
Frame Time: 0.016667
-394.748138 822.637512 1141.194946 9.260853 -0.652285 0.497522 -0.220091 -0.155433 -0.323900 -0.196672 0.030579 0.064348 -0.203604 -0.017712 -0.035319 -0.111769 0.697896 0.545701 0.000000 0.000000 0.000000 -0.041470 0.710703 -0.275011 0.030609 0.534443 0.526249 -0.045069 0.645196 -0.271438 0.000000 0.000000 0.000000 0.642455 0.778516 -0.068687 0.044271 0.645102 0.035554 0.269121 1.367354 1.266825 0.000000 0.000000 0.000000 0.071761 0.475546 -2.232367 0.057918 0.392838 -0.045961 0.043406 0.118122 0.044964 0.000000 0.000000 0.000000 0.074326 1.947667 1.381890 0.121075 -3.136866 -0.662001 0.118920 1.472726 0.447201 0.000000 0.000000 0.000000 
-394.613129 822.654297 1141.188965 9.268069 -0.644754 0.499072 -0.220855 -0.157049 -0.325653 -0.197322 0.029660 0.064544 -0.204233 -0.016689 -0.035100 -0.112527 0.686464 0.545997 0.000000 0.000000 0.000000 -0.048304 0.710526 -0.268188 0.027808 0.540645 0.496653 -0.046038 0.661507 -0.268310 0.000000 0.000000 0.000000 0.637925 0.774761 -0.066017 0.045086 0.640672 0.045986 0.270505 1.376361 1.270817 0.000000 0.000000 0.000000 0.069783 0.476227 -2.232605 0.055948 0.392088 -0.047624 0.041336 0.113725 0.043084 0.000000 0.000000 0.000000 0.072393 1.943935 1.382715 0.119212 -3.131298 -0.666164 0.116477 1.465991 0.444268 0.000000 0.000000 0.000000 
-394.477356 822.673157 1141.182983 9.274203 -0.636595 0.501336 -0.220543 -0.159131 -0.329644 -0.196737 0.029609 0.065117 -0.203762 -0.017094 -0.036193 -0.114418 0.672786 0.549845 0.000000 0.000000 0.000000 -0.051551 0.712120 -0.262854 0.025320 0.547890 0.472918 -0.047089 0.679467 -0.263567 0.000000 0.000000 0.000000 0.635035 0.770927 -0.063249 0.046125 0.635401 0.058833 0.271455 1.382722 1.273149 0.000000 0.000000 0.000000 0.068136 0.477641 -2.233754 0.054258 0.388478 -0.049337 0.039603 0.109194 0.041329 0.000000 0.000000 0.000000 0.070416 1.940462 1.380478 0.117192 -3.127479 -0.665881 0.114549 1.459819 0.441724 0.000000 0.000000 0.000000 
-394.338562 822.692322 1141.177979 9.280749 -0.627490 0.504036 -0.219290 -0.163158 -0.336077 -0.194950 0.030324 0.067495 -0.202237 -0.017371 -0.037682 -0.116315 0.658801 0.553647 0.000000 0.000000 0.000000 -0.054217 0.715426 -0.259151 0.023014 0.555807 0.453185 -0.048116 0.697396 -0.257425 0.000000 0.000000 0.000000 0.631486 0.766921 -0.061929 0.047364 0.629354 0.073787 0.272105 1.387407 1.274113 0.000000 0.000000 0.000000 0.066320 0.478986 -2.235128 0.052386 0.383323 -0.051588 0.037695 0.104930 0.039551 0.000000 0.000000 0.000000 0.068336 1.936504 1.376837 0.115020 -3.124661 -0.663859 0.112753 1.454220 0.439394 0.000000 0.000000 0.000000 
-394.199585 822.709473 1141.172974 9.286682 -0.620150 0.506625 -0.218946 -0.164971 -0.342258 -0.194122 0.029790 0.069659 -0.201650 -0.017317 -0.039306 -0.118181 0.645561 0.557498 0.000000 0.000000 0.000000 -0.052777 0.718188 -0.255094 0.020963 0.563504 0.436536 -0.049005 0.713010 -0.251615 0.000000 0.000000 0.000000 0.631954 0.763271 -0.059301 0.048348 0.623678 0.086284 0.272569 1.390815 1.274636 0.000000 0.000000 0.000000 0.064807 0.481117 -2.236344 0.050834 0.380559 -0.053647 0.036035 0.099553 0.037647 0.000000 0.000000 0.000000 0.066445 1.934649 1.374036 0.113086 -3.122028 -0.662998 0.111026 1.448827 0.437152 0.000000 0.000000 0.000000 
-394.059113 822.721802 1141.170044 9.291275 -0.615291 0.509346 -0.218230 -0.165832 -0.348267 -0.192987 0.030385 0.070820 -0.200657 -0.018195 -0.040099 -0.119997 0.635055 0.561735 0.000000 0.000000 0.000000 -0.050978 0.721066 -0.249636 0.019168 0.571062 0.422688 -0.049667 0.724678 -0.246936 0.000000 0.000000 0.000000 0.633221 0.760146 -0.055762 0.049104 0.619120 0.096037 0.272757 1.392312 1.274517 0.000000 0.000000 0.000000 0.063861 0.483649 -2.237682 0.049900 0.382432 -0.055296 0.034871 0.092840 0.035683 0.000000 0.000000 0.000000 0.064986 1.935741 1.372780 0.111677 -3.119599 -0.664901 0.109413 1.444439 0.435231 0.000000 0.000000 0.000000 
-393.917450 822.732239 1141.167969 9.295471 -0.612193 0.512004 -0.217837 -0.165957 -0.354270 -0.192172 0.031329 0.072113 -0.199981 -0.018499 -0.040742 -0.121830 0.625589 0.566244 0.000000 0.000000 0.000000 -0.047713 0.723562 -0.244319 0.017701 0.577801 0.412168 -0.050182 0.733842 -0.242827 0.000000 0.000000 0.000000 0.635977 0.757117 -0.051695 0.049678 0.614869 0.103891 0.272706 1.392353 1.273543 0.000000 0.000000 0.000000 0.063171 0.487006 -2.238912 0.049241 0.386713 -0.056753 0.033914 0.085160 0.033604 0.000000 0.000000 0.000000 0.063599 1.939022 1.372297 0.110391 -3.117491 -0.667927 0.107772 1.440431 0.433398 0.000000 0.000000 0.000000 
-393.779968 822.744202 1141.166016 9.299754 -0.607802 0.514567 -0.218172 -0.166658 -0.359196 -0.192155 0.031444 0.073278 -0.200093 -0.019028 -0.041471 -0.123086 0.618673 0.569244 0.000000 0.000000 0.000000 -0.043889 0.724842 -0.238579 0.016514 0.583106 0.403480 -0.050485 0.739345 -0.239913 0.000000 0.000000 0.000000 0.639535 0.754645 -0.048722 0.050093 0.611154 0.109934 0.272682 1.392637 1.272596 0.000000 0.000000 0.000000 0.062232 0.488708 -2.240251 0.048353 0.391011 -0.058076 0.032747 0.077576 0.031452 0.000000 0.000000 0.000000 0.062005 1.939635 1.371058 0.108831 -3.113266 -0.669435 0.105993 1.435633 0.431289 0.000000 0.000000 0.000000 
-393.645752 822.758911 1141.161011 9.306526 -0.600672 0.517013 -0.219316 -0.171071 -0.362268 -0.193102 0.032627 0.072984 -0.201040 -0.019459 -0.041512 -0.124312 0.612719 0.572332 0.000000 0.000000 0.000000 -0.043987 0.724578 -0.232644 0.015654 0.585663 0.396196 -0.050551 0.740872 -0.238091 0.000000 0.000000 0.000000 0.639959 0.751974 -0.045346 0.050233 0.608619 0.112430 0.272755 1.393904 1.271443 0.000000 0.000000 0.000000 0.060354 0.487853 -2.241373 0.046569 0.394811 -0.059998 0.030665 0.068673 0.028602 0.000000 0.000000 0.000000 0.059665 1.935388 1.368349 0.106405 -3.106016 -0.668111 0.103673 1.429284 0.428515 0.000000 0.000000 0.000000 
-393.515747 822.775146 1141.156006 9.313391 -0.592675 0.519284 -0.220887 -0.175181 -0.364851 -0.194473 0.032364 0.073411 -0.202431 -0.019504 -0.041416 -0.124801 0.608067 0.573086 0.000000 0.000000 0.000000 -0.044782 0.723180 -0.226920 0.015053 0.586461 0.390734 -0.050362 0.738267 -0.236822 0.000000 0.000000 0.000000 0.639983 0.749604 -0.043476 0.050242 0.606467 0.113283 0.272858 1.395648 1.269967 0.000000 0.000000 0.000000 0.058469 0.485745 -2.242497 0.044801 0.398878 -0.061884 0.028584 0.059034 0.025596 0.000000 0.000000 0.000000 0.057136 1.929101 1.364995 0.103731 -3.096981 -0.665261 0.101255 1.422207 0.425502 0.000000 0.000000 0.000000 
-393.386505 822.789307 1141.151001 9.318925 -0.585835 0.521072 -0.221488 -0.178984 -0.366535 -0.194974 0.034548 0.072789 -0.202903 -0.020819 -0.041072 -0.125571 0.605096 0.575187 0.000000 0.000000 0.000000 -0.047532 0.720889 -0.221831 0.015090 0.584700 0.390043 -0.050108 0.734163 -0.237143 0.000000 0.000000 0.000000 0.636957 0.747426 -0.041526 0.050090 0.605470 0.112243 0.272710 1.395293 1.268502 0.000000 0.000000 0.000000 0.056684 0.485726 -2.243483 0.043058 0.400705 -0.062658 0.026695 0.051125 0.023046 0.000000 0.000000 0.000000 0.055219 1.924014 1.362471 0.101699 -3.087464 -0.662884 0.099357 1.414669 0.422608 0.000000 0.000000 0.000000 
-393.256958 822.800537 1141.147949 9.322515 -0.582547 0.521820 -0.222236 -0.176572 -0.368274 -0.195618 0.034065 0.073259 -0.203604 -0.020711 -0.041572 -0.126116 0.600996 0.576259 0.000000 0.000000 0.000000 -0.048301 0.716001 -0.216399 0.015584 0.580057 0.392833 -0.049807 0.729421 -0.237202 0.000000 0.000000 0.000000 0.635735 0.745490 -0.040269 0.049661 0.604560 0.109437 0.272381 1.392815 1.268020 0.000000 0.000000 0.000000 0.055542 0.491313 -2.243958 0.041800 0.398395 -0.061903 0.025527 0.045410 0.021293 0.000000 0.000000 0.000000 0.054214 1.922780 1.362130 0.100678 -3.077547 -0.662301 0.098141 1.407135 0.420035 0.000000 0.000000 0.000000 
-393.128326 822.810608 1141.145020 9.324506 -0.580315 0.522037 -0.222503 -0.172517 -0.369711 -0.195817 0.032653 0.073739 -0.203803 -0.019813 -0.041449 -0.126612 0.597856 0.577359 0.000000 0.000000 0.000000 -0.048633 0.710148 -0.212712 0.016696 0.573056 0.400636 -0.049407 0.722739 -0.238537 0.000000 0.000000 0.000000 0.633433 0.743820 -0.040210 0.049107 0.604124 0.105311 0.271851 1.388898 1.267190 0.000000 0.000000 0.000000 0.054743 0.498714 -2.244459 0.040815 0.394152 -0.059691 0.024796 0.040513 0.019913 0.000000 0.000000 0.000000 0.053643 1.922677 1.362570 0.100116 -3.067098 -0.662017 0.097295 1.398808 0.417424 0.000000 0.000000 0.000000 
